<svg width="13" height="16" viewBox="0 0 13 16" fill="none" xmlns="http://www.w3.org/2000/svg">
<path d="M1.42855 14.2222C1.42855 15.2 2.19998 16 3.14284 16H9.99998C10.9428 16 11.7143 15.2 11.7143 14.2222V5.33333C11.7143 4.35556 10.9428 3.55556 9.99998 3.55556H3.14284C2.19998 3.55556 1.42855 4.35556 1.42855 5.33333V14.2222ZM11.7143 0.888889H9.57141L8.96284 0.257778C8.80855 0.0977777 8.5857 0 8.36284 0H4.77998C4.55713 0 4.33427 0.0977777 4.17998 0.257778L3.57141 0.888889H1.42855C0.957125 0.888889 0.571411 1.28889 0.571411 1.77778C0.571411 2.26667 0.957125 2.66667 1.42855 2.66667H11.7143C12.1857 2.66667 12.5714 2.26667 12.5714 1.77778C12.5714 1.28889 12.1857 0.888889 11.7143 0.888889Z" fill="#FF598B"/>
</svg>
